<svg width="149" height="95" viewBox="0 0 149 95" fill="none" xmlns="http://www.w3.org/2000/svg">
<path fill-rule="evenodd" clip-rule="evenodd" d="M0.853516 21.643V20.4678C4.82943 16.066 9.6038 12.3972 15.1766 9.46137C34.3724 -0.648345 57.1428 -1.94226 78.091 2.22611C78.2098 2.25067 78.2712 2.32438 78.2712 2.44722L78.2835 15.1038C78.2835 15.284 78.1934 15.3577 78.0173 15.3208C69.3367 13.5888 60.8157 12.0246 51.9467 12.3112C51.6518 12.3194 51.615 12.4177 51.8402 12.6102C55.595 15.7835 57.3598 19.9273 57.1305 25.0415C57.0445 26.9783 56.6883 28.6162 56.0659 29.951C55.7424 30.6389 55.9594 30.9215 56.7087 30.8027L57.8634 30.6185C58.6046 30.4997 59.1901 30.1394 59.6241 29.5293L61.1883 27.3386C61.5937 26.7736 62.4454 26.8145 62.7893 27.4164C62.9036 27.6142 63.0143 27.8509 63.1302 28.0989L63.1302 28.099L63.1303 28.0991L63.1304 28.0992L63.1304 28.0994L63.1305 28.0995C63.5378 28.9708 64.0098 29.9806 64.9308 29.9265C65.9995 29.865 67.0723 29.8159 68.1451 29.7791C68.8943 29.7548 69.7318 29.779 70.5991 29.8039C71.6374 29.8338 72.7185 29.865 73.7425 29.8159C75.0078 29.7586 75.708 29.0338 76.3467 28.0757C76.6538 27.6171 77.3131 27.5761 77.6734 27.9938C78.0329 28.4125 78.1974 28.8047 78.3441 29.1545C78.6135 29.7967 78.8229 30.2958 80.0688 30.5529C80.3349 30.6062 80.5847 30.4096 80.597 30.1353C80.6416 28.852 80.681 27.5635 80.7205 26.2719C80.9021 20.3353 81.0857 14.3319 81.7885 8.44999C81.8418 8.01595 81.9482 7.74161 82.112 7.62287C82.3618 7.43861 82.5092 7.50002 82.5624 7.80712C82.89 9.77256 83.0906 11.6602 83.1602 13.4741C83.3854 19.1043 83.5861 24.6976 83.7621 30.254C83.7703 30.5366 84.0242 30.7454 84.2985 30.6963C85.441 30.4956 86.5219 30.3073 87.5374 30.1353C88.2628 30.0111 88.9461 29.0548 89.5971 28.1436L89.5972 28.1435C90.0192 27.5529 90.4277 26.9811 90.8254 26.6671C91.2431 26.3355 91.8614 26.4583 92.1193 26.9251C92.26 27.179 92.3813 27.4432 92.4999 27.7017C92.9646 28.7146 93.3888 29.6393 94.785 29.5088C96.517 29.3491 97.9993 29.2386 99.891 29.345C100.976 29.4064 102.065 29.4023 103.15 29.3327C104.214 29.267 104.691 28.6756 105.122 28.1408C105.442 27.7435 105.737 27.3773 106.23 27.2813C106.982 27.1319 107.225 27.7271 107.5 28.4024C107.835 29.226 108.219 30.1687 109.636 30.0247C109.776 30.0125 109.882 29.8978 109.89 29.7545L110.631 11.7544C110.648 11.3408 110.963 11.001 111.377 10.9518L111.536 10.9313C112.032 10.8699 112.474 11.2507 112.49 11.7544L113.1 30.5038C113.104 30.6963 113.305 30.8191 113.477 30.7331C114.23 30.358 115.221 30.2626 116.146 30.1735C116.776 30.1129 117.375 30.0552 117.846 29.9142C118.771 29.6381 119.622 28.3829 120.312 27.3662C120.502 27.0861 120.68 26.8241 120.843 26.6057C120.962 26.4501 121.142 26.3436 121.339 26.3191C122.282 26.1972 122.586 26.8989 122.915 27.6576C123.316 28.5815 123.753 29.59 125.425 29.3C127.075 29.0175 128.734 28.9601 130.392 29.128C131.403 29.2345 134.085 29.3164 134.827 28.608C135.244 28.2108 135.646 27.7972 136.035 27.3714C136.116 27.2772 136.215 27.2158 136.333 27.183C137.353 26.8962 137.616 27.5864 137.902 28.3347C138.22 29.1674 138.566 30.0721 140.01 29.7832C140.117 29.7627 140.195 29.6726 140.199 29.5661L140.977 11.5292C140.993 11.1156 141.337 10.788 141.755 10.7921H141.878C142.406 10.7962 142.68 11.0583 142.705 11.5824C143 17.9578 143.229 23.8418 143.397 29.2345C143.434 30.4711 143.72 31.8551 145.362 31.552C145.44 31.5357 145.497 31.4661 145.497 31.3883C145.493 24.5133 145.493 17.6343 145.497 10.7594C145.501 7.04552 144.433 5.49364 140.694 5.49364C121.011 5.49774 101.295 5.49774 81.5469 5.49364C81.4732 5.49364 81.4364 5.45679 81.4364 5.37899L81.4487 2.34485C81.4487 2.28343 81.4814 2.25067 81.5428 2.25067C110.844 2.26705 130.83 2.26705 141.505 2.25067C144.707 2.24248 147.528 4.06051 148.515 7.11922C148.736 7.80303 148.847 8.9741 148.847 10.6365C148.855 30.9297 148.855 51.2228 148.851 71.5118C148.851 74.8203 146.951 77.5269 143.835 78.4768C143.147 78.6857 141.923 78.7921 140.166 78.7921C134.667 78.795 129.167 78.8 123.668 78.805H123.667H123.666H123.665H123.664H123.663H123.663H123.662C105.929 78.821 88.1946 78.8371 70.4627 78.7839C63.0063 78.7635 55.5541 78.7635 48.0977 78.788C46.3697 78.7921 45.0635 78.612 44.175 78.2434C41.7387 77.2362 40.2523 75.2052 39.7118 72.1506C39.6545 71.823 39.7937 71.6592 40.1295 71.6592L42.8442 71.6674C43.1513 71.6674 43.3233 71.823 43.3561 72.1301C43.5936 74.3904 44.9161 75.5205 47.3279 75.5246C61.3234 75.5451 92.4961 75.5451 140.846 75.5205C143.933 75.5164 145.489 74.2102 145.493 71.1392C145.497 58.4048 145.497 45.6704 145.497 32.936C145.497 32.7886 145.428 32.7395 145.284 32.7886L144.51 33.0671C144.416 33.0998 144.314 33.108 144.216 33.0875C142.201 32.6576 141.726 29.9101 141.906 28.133C141.91 28.0757 141.886 28.047 141.828 28.0429H141.824C141.767 28.0388 141.738 28.0634 141.734 28.1207C141.727 28.3308 141.722 28.5289 141.717 28.7153C141.652 31.0987 141.639 31.5909 138.688 31.0934C137.947 30.9665 137.251 30.426 136.608 29.4638C136.489 29.2836 136.346 29.2672 136.186 29.4105L135.052 30.4342C134.954 30.5243 134.818 30.5734 134.683 30.5693C133.986 30.5536 133.319 30.573 132.651 30.5923C131.755 30.6183 130.858 30.6444 129.884 30.5857C128.308 30.4915 126.584 30.5734 124.721 30.8273C122.97 31.0672 122.359 29.9057 121.664 28.5853L121.613 28.4892C121.523 28.3132 121.269 28.3214 121.183 28.4974C119.841 31.2477 117.92 31.4939 115.303 31.8293C115.134 31.8509 114.962 31.8729 114.787 31.896C114.673 31.9124 114.562 31.9615 114.476 32.0434L113.592 32.8419C113.518 32.9074 113.42 32.9442 113.321 32.9442C111.606 32.9401 111.52 29.8855 111.557 28.7185C111.561 28.6735 111.536 28.6489 111.491 28.6489C111.442 28.6448 111.413 28.6694 111.409 28.7226L111.286 30.6594C111.258 31.1221 110.877 31.4865 110.414 31.4947C108.74 31.5316 107.106 31.4046 106.381 29.5948C106.316 29.4269 106.099 29.3819 105.972 29.5088L104.772 30.6553C104.694 30.7331 104.588 30.7741 104.473 30.77C103.486 30.7413 102.512 30.77 101.549 30.8478C100.986 30.8944 100.419 30.8226 99.871 30.7532C99.3606 30.6885 98.867 30.626 98.4087 30.6635C96.9715 30.7822 95.5384 30.8887 94.1053 30.9829C92.5247 31.0853 91.7959 29.8773 91.3168 28.6039C91.2595 28.4565 91.0547 28.4483 90.9892 28.5916C90.4897 29.6767 89.7322 30.5284 88.7208 31.1426C88.2077 31.4527 87.4807 31.5754 86.7536 31.6982C85.6759 31.88 84.5981 32.062 84.2167 32.8541C84.0242 33.2595 83.5083 33.3905 83.1439 33.1285C82.3224 32.5412 82.2871 30.6585 82.2662 29.5412C82.264 29.4276 82.2621 29.3219 82.2594 29.2263C82.2594 29.1812 82.2348 29.1608 82.1898 29.1567C82.1448 29.1526 82.1161 29.173 82.112 29.2181C82.09 29.4038 82.0913 29.6463 82.0928 29.9098C82.0967 30.6283 82.1014 31.5022 81.637 31.8018C81.1369 32.1252 80.1845 31.9928 79.5344 31.9024C79.4766 31.8944 79.4211 31.8866 79.3686 31.8796C78.263 31.7363 77.5301 31.1753 77.1738 30.2049C77.0756 29.9428 76.7439 29.8691 76.5474 30.0616L75.409 31.1671C75.3149 31.2572 75.1838 31.3064 75.0528 31.2941C74.3086 31.2277 73.5906 31.2601 72.8765 31.2922C72.1802 31.3236 71.4876 31.3547 70.778 31.2941C69.0541 31.1426 67.2443 31.2122 65.3485 31.5029C63.4731 31.7895 62.6542 30.6512 62.0154 29.1157C61.9417 28.9356 61.6919 28.9356 61.6141 29.1116C61.0696 30.3769 60.1933 31.29 58.9854 31.8469C58.2831 32.1712 57.4421 32.2007 56.5889 32.2307C56.1388 32.2465 55.6853 32.2625 55.2469 32.3218C55.1036 32.3423 54.989 32.416 54.9112 32.5348C52.5117 36.2363 49.1418 38.5826 44.8015 39.5776C44.6664 39.6103 44.5681 39.7291 44.5681 39.8724V69.575C44.5681 69.6979 44.4698 69.7962 44.3511 69.7921L38.7127 69.788C38.5858 69.788 38.4793 69.6815 38.4793 69.5505L38.4711 40.073C38.4711 39.8724 38.3729 39.7414 38.1804 39.6881C37.8242 39.5899 37.4311 39.4752 37.0052 39.3442C28.3 36.699 23.9064 28.8496 25.921 20.042C25.9497 19.9109 25.8105 19.8127 25.6958 19.8823C19.5333 23.7149 15.2831 28.5752 11.3154 34.5985C11.2376 34.7172 11.1311 34.7459 11.0042 34.6804C5.54599 31.9124 2.15971 27.5679 0.853516 21.643ZM46.3247 26.2577C46.3247 23.4528 44.0522 21.1803 41.2473 21.1803C38.4425 21.1803 36.1699 23.4528 36.1699 26.2577C36.1699 29.0625 38.4425 31.335 41.2473 31.335C44.0522 31.335 46.3247 29.0625 46.3247 26.2577ZM43.2127 36.1176C43.2127 35.9579 43.0858 35.831 42.9261 35.831H40.0681C39.9084 35.831 39.7814 35.9579 39.7814 36.1176V68.1133C39.7814 68.2729 39.9084 68.3999 40.0681 68.3999H42.9261C43.0858 68.3999 43.2127 68.2729 43.2127 68.1133V36.1176ZM130.22 67.102C128.546 68.662 127.162 69.7512 124.824 69.8127C115.701 70.042 112.224 61.4309 115.107 53.9049C117.207 48.4099 125.61 46.1292 129.733 50.6988C130.024 51.0182 130.167 50.9608 130.163 50.5309L130.147 36.4002C130.147 36.2897 130.237 36.1996 130.347 36.2037L133.844 36.2201C133.926 36.2201 133.991 36.2856 133.991 36.3634L133.971 68.8258C133.971 69.178 133.795 69.354 133.443 69.354L130.863 69.35C130.531 69.35 130.376 69.1862 130.392 68.8545L130.478 67.2248C130.486 67.0856 130.323 67.0078 130.22 67.102ZM119.926 53.1187C118.071 55.4036 118.055 58.2289 118.37 61.1729C118.813 65.3044 122.711 68.1052 126.732 66.4509C131.289 64.5715 131.486 56.7466 128.816 53.3562C126.678 50.6415 122.027 50.5309 119.926 53.1187ZM67.2653 48.6145C63.5269 47.7096 60.4149 48.6145 57.9254 51.3293C57.8517 51.4112 57.7166 51.3539 57.7207 51.2433L57.7862 49.4539C57.8025 48.9831 57.5773 48.7497 57.1065 48.7538L54.8667 48.7824C54.4367 48.7865 54.2197 49.0035 54.2197 49.4376L54.2525 69.1329C54.2525 69.2762 54.3262 69.3458 54.4695 69.3458L57.9704 69.3335C58.081 69.3335 58.167 69.2475 58.167 69.137C58.1056 62.6305 58.1219 58.5441 58.2161 56.8776C58.3553 54.4617 59.338 52.8238 61.1602 51.9681C64.3909 50.4489 67.8631 51.534 67.8386 55.7515C67.8099 60.2843 67.7976 64.7516 67.7935 69.1492C67.7935 69.2803 67.859 69.3458 67.9901 69.3458L71.6097 69.3499C71.7203 69.3499 71.7735 69.2967 71.7735 69.1861C71.7776 65.1242 71.7735 60.9845 71.7653 56.7711C71.7612 55.0309 72.3222 53.6714 73.4441 52.6928C75.1885 51.1737 78.9678 50.6496 80.6303 52.787C81.3468 53.7083 81.4205 55.1824 81.4205 56.3657C81.4205 60.6733 81.4123 64.9317 81.396 69.137C81.396 69.2762 81.4656 69.3458 81.6048 69.3458L85.0812 69.3335C85.1917 69.3335 85.249 69.2803 85.249 69.1697C85.2613 64.5878 85.2859 59.9404 85.3227 55.2356C85.3923 46.8702 75.4178 46.4567 71.274 51.706C71.2126 51.7838 71.0897 51.7674 71.0488 51.6773C70.2667 50.0599 69.0055 49.0363 67.2653 48.6145ZM93.8188 60.2437C94.1013 67.5936 103.56 69.641 106.701 62.7865C106.729 62.7169 106.782 62.6882 106.852 62.7005L110.595 63.1346C110.697 63.1468 110.73 63.2042 110.697 63.2983C108.695 69.297 102.643 70.6933 97.0822 69.3707C90.7847 67.8762 88.8069 61.943 90.0149 56.1614C90.5103 53.7906 91.6773 51.8865 93.5158 50.4452C97.0986 47.6363 103.482 47.5912 107.073 50.3551C110.046 52.64 110.922 56.018 110.844 59.6254C110.84 59.8138 110.689 59.9612 110.5 59.9612L94.0931 59.9571C93.9048 59.9571 93.8147 60.0513 93.8188 60.2437ZM106.713 56.8493C105.837 49.139 94.7974 49.4543 93.9867 56.8411C93.9744 56.9721 94.0768 57.0868 94.2078 57.0868L106.5 57.0908C106.627 57.0908 106.729 56.9762 106.713 56.8493ZM59.8289 82.6164C59.2598 82.4853 58.7766 82.6164 58.3712 83.0095C58.2852 83.0913 58.1911 83.1036 58.0887 83.0463C51.4062 79.2383 50.7961 93.414 58.0314 89.8312C58.146 89.7738 58.2852 89.8516 58.2934 89.9827C58.4777 92.8858 55.4845 92.808 53.6132 92.3371C53.298 92.2593 53.1464 92.3821 53.1669 92.7056L53.1997 93.2502C53.2201 93.5737 53.388 93.7702 53.7115 93.8357C56.4672 94.4008 59.9763 94.1674 60.0541 90.4535C60.1074 87.9967 60.1319 85.5113 60.1319 82.9972C60.1319 82.817 60.005 82.6573 59.8289 82.6164ZM56.7141 83.9279C57.6014 83.9349 58.3139 84.6596 58.3051 85.547L58.2898 87.3076C58.2811 88.1933 57.5564 88.9058 56.6707 88.8986L56.4005 88.8963C55.5132 88.8894 54.8007 88.1646 54.8094 87.2772L54.8248 85.5166C54.8334 84.6309 55.5582 83.9185 56.4439 83.9256L56.7141 83.9279ZM90.7971 90.4372C88.6267 90.2983 86.9847 88.3697 87.1281 86.1337C87.2713 83.8984 89.1508 82.1991 91.3208 82.3386C93.4911 82.4775 95.1331 84.4061 94.9897 86.6421C94.8465 88.8775 92.967 90.5767 90.7971 90.4372ZM91.0853 88.9142C92.1727 88.902 93.0448 87.7637 93.0283 86.3714C93.0121 84.9793 92.1194 83.8574 91.0325 83.8698C89.9452 83.882 89.073 85.0203 89.0895 86.4126C89.1058 87.8047 89.9984 88.9266 91.0853 88.9142ZM127.276 93.5492L127.256 89.9745C127.256 89.819 127.326 89.778 127.461 89.8476C133.59 92.8818 134.52 81.257 128.611 82.4936C128.467 82.5235 128.305 82.5837 128.134 82.6472L128.134 82.6472C127.884 82.7402 127.615 82.8402 127.354 82.8621C127.112 82.8831 126.877 82.8201 126.63 82.7538C126.297 82.6645 125.941 82.5692 125.516 82.6656C125.401 82.6902 125.344 82.7598 125.344 82.8785L125.352 93.4182C125.352 93.6761 125.483 93.8072 125.741 93.8112L126.994 93.8276C127.149 93.8317 127.276 93.7048 127.276 93.5492ZM129.121 83.9086C129.954 83.9186 130.618 84.6024 130.609 85.4337L130.585 87.4072C130.577 88.2384 129.893 88.9058 129.06 88.8955L128.716 88.8913C127.882 88.8813 127.219 88.1975 127.228 87.3661L127.252 85.3927C127.26 84.5614 127.944 83.894 128.777 83.9044L129.121 83.9086ZM74.5004 84.6967C74.312 84.8236 74.2015 85.0324 74.2015 85.2577L74.2302 90.0607C74.2302 90.1508 74.1851 90.1958 74.0991 90.1958L72.5145 90.1712C72.4285 90.1712 72.3876 90.1303 72.3876 90.0443L72.3302 82.7312C72.3261 82.5756 72.4039 82.5101 72.5554 82.5388L74.353 82.8459C74.4021 82.8582 74.4595 82.8541 74.5086 82.8336C75.2211 82.5593 75.954 82.461 76.7074 82.5306C76.8344 82.5429 76.9367 82.6371 76.9654 82.7599C77.1755 83.7535 76.3169 84.0267 75.488 84.2905C75.1213 84.4072 74.7604 84.5221 74.5004 84.6967ZM111.704 87.4156C111.708 88.5375 111.151 89.0289 110.042 88.8856L109.624 88.8324C108.977 88.7505 108.49 88.2018 108.482 87.5507L108.428 82.8582C108.428 82.719 108.359 82.6494 108.22 82.6494L106.905 82.6576C106.721 82.6576 106.631 82.7477 106.631 82.9319C106.619 84.492 106.635 86.0398 106.684 87.5794C106.803 91.3956 113.285 91.4529 113.461 87.477C113.53 85.8924 113.571 84.3405 113.584 82.8132C113.588 82.719 113.539 82.6699 113.44 82.6658L111.815 82.6535C111.733 82.6535 111.692 82.6945 111.692 82.7763L111.704 87.4156Z" fill="#1A6DAD"/>
</svg>
